<svg width="23" height="22" viewBox="0 0 23 22" fill="none" xmlns="http://www.w3.org/2000/svg">
<path d="M21.18 11.2292C21.18 10.5142 21.1158 9.82666 20.9967 9.16666H11.5V13.0671H16.9267C16.6929 14.3275 15.9825 15.3954 14.9146 16.1104V18.6404H18.1733C20.08 16.885 21.18 14.3 21.18 11.2292Z" fill="#4285F4"/>
<path d="M11.5001 21.0833C14.2226 21.0833 16.5051 20.1804 18.1734 18.6404L14.9147 16.1104C14.0118 16.7154 12.8568 17.0729 11.5001 17.0729C8.87384 17.0729 6.65092 15.2992 5.85801 12.9158H2.48926V15.5283C4.14842 18.8237 7.55842 21.0833 11.5001 21.0833Z" fill="#34A853"/>
<path d="M5.85775 12.9158C5.65609 12.3108 5.5415 11.6646 5.5415 11C5.5415 10.3354 5.65609 9.68918 5.85775 9.08418V6.47168H2.489C1.78317 7.8768 1.41588 9.42757 1.4165 11C1.4165 12.6271 1.80609 14.1671 2.489 15.5283L5.85775 12.9158Z" fill="#FBBC05"/>
<path d="M11.5001 4.92707C12.9805 4.92707 14.3097 5.43582 15.3547 6.43499L18.2468 3.54291C16.5005 1.91582 14.218 0.916656 11.5001 0.916656C7.55842 0.916656 4.14842 3.17624 2.48926 6.47166L5.85801 9.08416C6.65092 6.70082 8.87384 4.92707 11.5001 4.92707Z" fill="#EA4335"/>
</svg>
