<svg width="120" height="118" viewBox="0 0 120 118" fill="none" xmlns="http://www.w3.org/2000/svg">
<path d="M16.9727 2.83801H61.283C84.3232 2.83801 103.029 21.5441 103.029 44.5843C103.029 67.6244 84.3232 86.3305 61.283 86.3305H58.7212C35.681 86.3305 16.975 67.6244 16.975 44.5843V2.83801H16.9727Z" fill="#D1EBD8"/>
<path d="M61.2828 89.1685H58.721C34.1363 89.1685 14.1367 69.1689 14.1367 44.5843V0H61.2828C85.8674 0 105.867 19.9996 105.867 44.5843C105.867 69.1689 85.8674 89.1685 61.2828 89.1685ZM19.8104 5.67373V44.5843C19.8104 66.0386 37.2644 83.4948 58.721 83.4948H61.2828C82.7371 83.4948 100.193 66.0409 100.193 44.5843C100.193 23.1277 82.7394 5.67373 61.2828 5.67373H19.8104Z" fill="#0E5723"/>
<g style="mix-blend-mode:multiply">
<path d="M83.2366 33.7477C80.4285 30.9396 76.6905 29.3906 72.7177 29.386H62.3393C54.1475 29.386 47.4794 36.0495 47.4702 44.2413C47.4702 44.9847 47.5209 45.7144 47.6244 46.4348C47.6751 46.757 47.9559 46.9964 48.2804 46.9964H51.6547C52.0667 46.9964 52.3798 46.6212 52.3015 46.2161C52.1795 45.5717 52.1151 44.9157 52.1151 44.2459C52.1151 43.7257 52.1565 43.217 52.2325 42.7152C52.2923 42.3446 52.3683 41.9718 52.4626 41.615C52.9437 39.822 53.8943 38.2269 55.181 36.9678C55.616 36.5374 56.0878 36.1484 56.5942 35.8032C58.233 34.6891 60.2102 34.0355 62.3347 34.0355H62.3393L72.7131 34.0401C75.4453 34.0401 78.014 35.1058 79.9428 37.0392C81.8717 38.9703 82.9328 41.5367 82.9328 44.2689C82.9282 48.9299 79.7794 52.9947 75.2773 54.1594C74.52 54.355 73.9146 54.9166 73.6591 55.6578L72.2919 59.6536L69.7186 56.3069C68.8348 55.156 67.4675 54.4816 66.0129 54.4816H62.3347C61.3841 54.4816 60.4542 54.355 59.5611 54.1064C59.2481 54.0167 58.9213 53.9706 58.5967 53.9706H52.1312C51.7238 53.9706 51.5143 54.4701 51.8043 54.7578L51.8136 54.767C54.6216 57.5797 58.355 59.1288 62.3278 59.1288H66.0198L70.0823 64.4158C70.7222 65.249 71.705 65.7209 72.7316 65.7209C72.9088 65.7209 73.0929 65.7071 73.2748 65.6795C74.4878 65.4746 75.4936 64.6276 75.8987 63.4606L77.671 58.2863C83.5611 56.2079 87.5707 50.617 87.5776 44.2781C87.5822 40.3007 86.0378 36.5627 83.2297 33.75L83.2366 33.7477Z" fill="#0E5723"/>
<path d="M58.7622 52.8061H46.7749C38.6567 52.8061 32.0508 46.2001 32.0508 38.082C32.0508 29.9638 38.613 23.4523 46.6805 23.4523H59.9062C61.1905 23.4523 62.2309 24.4926 62.2309 25.777C62.2309 27.0614 61.1905 28.1017 59.9062 28.1017H46.6805C41.1771 28.1017 36.7002 32.5786 36.7002 38.082C36.7002 43.5854 41.2208 48.1589 46.7772 48.1589H58.7645C61.2688 48.1589 63.3035 46.1219 63.3035 43.6199C63.3035 42.5128 62.4035 41.6128 61.2964 41.6128H50.9594C49.675 41.6128 48.6346 40.5724 48.6346 39.2881C48.6346 38.0037 49.675 36.9633 50.9594 36.9633H61.2964C64.9653 36.9633 67.9507 39.9487 67.9507 43.6176C67.9507 48.6837 63.8283 52.8061 58.7622 52.8061Z" fill="#0E5723"/>
<path d="M55.1859 36.9634C53.8993 38.2224 52.9487 39.8175 52.4676 41.6105H50.96C49.6779 41.6105 48.6353 40.5679 48.6353 39.2858C48.6353 38.0037 49.6779 36.9611 50.96 36.9611H55.1859V36.9634Z" fill="#89F0A6"/>
</g>
<path d="M6.12487 101.66C9.56593 101.66 11.2439 103.821 11.6237 105.948H9.28973C8.90994 104.756 8.02838 103.734 6.15939 103.734C3.66893 103.734 2.35465 105.584 2.35465 107.884C2.35465 110.183 3.59988 112.034 6.07192 112.034C7.83504 112.034 8.82018 110.892 9.18385 109.543H6.22614V107.608H11.6214V113.97H9.19996V113.173C9.19996 112.775 9.26901 112.414 9.51069 111.824C9.56363 111.686 9.52911 111.583 9.42323 111.548C9.28513 111.495 9.19766 111.583 9.16313 111.67C8.79946 112.552 7.67623 114.108 5.60238 114.108C2.09226 114.108 0 111.325 0 107.884C0 104.443 2.1429 101.66 6.12026 101.66H6.12487Z" fill="#70DD8D"/>
<path d="M15.9808 108.593C17.6058 108.505 19.0421 108.662 19.0237 107.815C19.0053 107.193 18.7636 106.5 17.1915 106.5C15.6195 106.5 15.2374 107.14 15.1177 107.884H12.9403C13.251 105.584 15.2236 104.703 17.2629 104.703C19.3022 104.703 21.2403 105.396 21.2403 108.922V113.969H19.026V113.33C19.026 112.915 19.1296 112.639 19.2861 112.326C19.3552 112.17 19.4242 111.997 19.2677 111.928C19.0951 111.859 19.026 112.031 18.9915 112.119C18.4736 113.38 17.47 114.108 15.845 114.108C14.1326 114.108 12.6641 113 12.6641 111.463C12.6641 109.44 14.151 108.696 15.9831 108.593H15.9808ZM16.3606 110.061C15.41 110.165 14.8737 110.528 14.8737 111.341C14.8737 112.1 15.6011 112.586 16.6207 112.448C17.7969 112.292 19.0076 111.532 19.0237 109.267C18.5058 109.838 17.6749 109.923 16.3606 110.063V110.061Z" fill="#70DD8D"/>
<path d="M24.3123 110.892C24.3307 111.566 24.7266 112.379 26.3355 112.379C27.7534 112.379 28.2206 111.896 28.2206 111.29C28.2206 110.616 27.3207 110.512 25.576 110.305C22.7748 109.96 22.4111 108.508 22.4111 107.486C22.4111 105.999 23.7254 104.703 26.3194 104.703C28.7224 104.703 30.0367 105.983 30.1587 107.642H27.9813C27.9283 107.071 27.5485 106.431 26.2688 106.431C24.989 106.431 24.6254 106.846 24.6254 107.366C24.6254 107.799 24.8164 108.162 26.5956 108.335C28.826 108.56 30.4349 109.285 30.4349 111.118C30.4349 112.95 28.9641 114.11 26.2688 114.11C23.5735 114.11 22.2224 112.849 22.1372 110.894H24.3146L24.3123 110.892Z" fill="#70DD8D"/>
<path d="M33.6854 113.97H31.4712V101.52H33.6854V113.97Z" fill="#70DD8D"/>
<path d="M43.3848 109.96H36.7443C36.9008 111.343 37.7985 112.174 39.1818 112.174C40.236 112.174 40.7723 111.603 41.0324 110.791H43.2812C42.883 112.676 41.6032 114.11 39.1657 114.11C36.2103 114.11 34.583 112.121 34.583 109.407C34.583 106.556 36.3461 104.705 39.1312 104.705C41.2396 104.705 43.4354 105.966 43.4354 109.288C43.4354 109.529 43.417 109.702 43.3825 109.962L43.3848 109.96ZM41.2235 108.438C41.136 107.331 40.48 106.503 39.2003 106.503C37.6949 106.503 37.0574 107.35 36.8318 108.438H41.2235Z" fill="#70DD8D"/>
<path d="M46.2386 110.892C46.257 111.566 46.6529 112.379 48.2618 112.379C49.6797 112.379 50.1469 111.896 50.1469 111.29C50.1469 110.616 49.2469 110.512 47.5022 110.305C44.701 109.96 44.3374 108.508 44.3374 107.486C44.3374 105.999 45.6517 104.703 48.2457 104.703C50.6487 104.703 51.963 105.983 52.085 107.642H49.9075C49.8546 107.071 49.4748 106.431 48.1951 106.431C46.9153 106.431 46.5516 106.846 46.5516 107.366C46.5516 107.799 46.7427 108.162 48.5219 108.335C50.7523 108.56 52.3612 109.285 52.3612 111.118C52.3612 112.95 50.8904 114.11 48.1951 114.11C45.4997 114.11 44.1486 112.849 44.0635 110.894H46.2409L46.2386 110.892Z" fill="#70DD8D"/>
<path d="M55.1605 110.892C55.1789 111.566 55.5748 112.379 57.1837 112.379C58.6015 112.379 59.0688 111.896 59.0688 111.29C59.0688 110.616 58.1688 110.512 56.4241 110.305C53.6229 109.96 53.2593 108.508 53.2593 107.486C53.2593 105.999 54.5735 104.703 57.1676 104.703C59.5706 104.703 60.8849 105.983 61.0068 107.642H58.8294C58.7765 107.071 58.3967 106.431 57.1169 106.431C55.8372 106.431 55.4735 106.846 55.4735 107.366C55.4735 107.799 55.6645 108.162 57.4438 108.335C59.6741 108.56 61.283 109.285 61.283 111.118C61.283 112.95 59.8122 114.11 57.1169 114.11C54.4216 114.11 53.0705 112.849 52.9854 110.894H55.1628L55.1605 110.892Z" fill="#70DD8D"/>
<path d="M72.5204 101.66C75.9614 101.66 77.6394 103.821 78.0192 105.948H75.6852C75.3055 104.756 74.4239 103.734 72.5549 103.734C70.0644 103.734 68.7502 105.584 68.7502 107.884C68.7502 110.183 69.9954 112.034 72.4674 112.034C74.2306 112.034 75.2157 110.892 75.5794 109.543H72.6216V107.608H78.0169V113.97H75.5955V113.173C75.5955 112.775 75.6645 112.414 75.9062 111.824C75.9591 111.686 75.9246 111.583 75.8187 111.548C75.6806 111.495 75.5932 111.583 75.5586 111.67C75.195 112.552 74.0717 114.108 71.9979 114.108C68.4878 114.108 66.3955 111.325 66.3955 107.884C66.3955 104.443 68.5384 101.66 72.5158 101.66H72.5204Z" fill="#70DD8D"/>
<path d="M88.1857 109.405C88.1857 111.999 86.4733 114.108 83.6214 114.108C80.7696 114.108 79.0571 111.999 79.0571 109.405C79.0571 106.811 80.7696 104.703 83.6214 104.703C86.4733 104.703 88.1857 106.811 88.1857 109.405ZM85.9715 109.405C85.9715 107.918 85.1245 106.708 83.6191 106.708C82.1138 106.708 81.2668 107.918 81.2668 109.405C81.2668 110.892 82.1138 112.103 83.6191 112.103C85.1245 112.103 85.9715 110.892 85.9715 109.405Z" fill="#70DD8D"/>
<path d="M90.9862 110.892C91.0046 111.566 91.4005 112.379 93.0094 112.379C94.4272 112.379 94.8945 111.896 94.8945 111.29C94.8945 110.616 93.9945 110.512 92.2498 110.305C89.4486 109.96 89.0849 108.508 89.0849 107.486C89.0849 105.999 90.3992 104.703 92.9933 104.703C95.3962 104.703 96.7105 105.983 96.8325 107.642H94.6551C94.6021 107.071 94.2224 106.431 92.9426 106.431C91.6629 106.431 91.2992 106.846 91.2992 107.366C91.2992 107.799 91.4902 108.162 93.2695 108.335C95.4998 108.56 97.1087 109.285 97.1087 111.118C97.1087 112.95 95.6379 114.11 92.9426 114.11C90.2473 114.11 88.8962 112.849 88.811 110.894H90.9885L90.9862 110.892Z" fill="#70DD8D"/>
<path d="M99.9075 110.892C99.9259 111.566 100.322 112.379 101.931 112.379C103.349 112.379 103.816 111.896 103.816 111.29C103.816 110.616 102.916 110.512 101.171 110.305C98.37 109.96 98.0063 108.508 98.0063 107.486C98.0063 105.999 99.3206 104.703 101.915 104.703C104.318 104.703 105.632 105.983 105.754 107.642H103.576C103.524 107.071 103.144 106.431 101.864 106.431C100.584 106.431 100.221 106.846 100.221 107.366C100.221 107.799 100.412 108.162 102.191 108.335C104.421 108.56 106.03 109.285 106.03 111.118C106.03 112.95 104.559 114.11 101.864 114.11C99.1687 114.11 97.8176 112.849 97.7324 110.894H99.9098L99.9075 110.892Z" fill="#70DD8D"/>
<path d="M107.066 101.522H109.281V103.736H107.066V101.522ZM109.281 104.841V113.97H107.066V104.841H109.281Z" fill="#70DD8D"/>
<path d="M113.085 104.841V105.186C113.085 105.55 112.998 105.826 112.844 106.137C112.774 106.309 112.652 106.517 112.825 106.604C112.998 106.691 113.101 106.466 113.136 106.397C113.688 105.428 114.607 104.703 116.022 104.703C118.391 104.703 120 106.779 120 109.405C120 112.031 118.391 114.108 116.022 114.108C114.639 114.108 113.688 113.399 113.136 112.395C113.101 112.344 113.032 112.17 112.876 112.222C112.685 112.292 112.754 112.464 112.841 112.637C112.998 112.948 113.083 113.224 113.083 113.571V117.289H110.869V104.839H113.083L113.085 104.841ZM117.788 109.405C117.788 107.953 117.063 106.708 115.504 106.708C114.052 106.708 113.083 107.953 113.083 109.405C113.083 110.858 114.052 112.103 115.504 112.103C117.06 112.103 117.788 110.858 117.788 109.405Z" fill="#70DD8D"/>
</svg>
