<svg width="120" height="120" viewBox="0 0 120 120" fill="none" xmlns="http://www.w3.org/2000/svg">
<path d="M53.6895 5.46094C57.3 1.90273 63.1941 2.02184 66.6523 5.81738L69.708 9.1709L69.8838 9.35645C71.728 11.2386 74.4822 11.9308 77.0068 11.127L81.3301 9.75L81.8037 9.6123C86.7098 8.33568 91.7552 11.3861 92.8525 16.4023L93.8223 20.835L93.8818 21.084C94.5381 23.6357 96.577 25.6117 99.165 26.1777L103.598 27.1475L104.076 27.2656C108.806 28.5696 111.623 33.4483 110.388 38.1963L110.25 38.6699L108.873 42.9932C108.043 45.5991 108.808 48.4501 110.829 50.292L114.183 53.3477L114.539 53.6895C117.982 57.1835 117.982 62.8165 114.539 66.3105L114.183 66.6523L110.829 69.708C108.808 71.5499 108.043 74.4009 108.873 77.0068L110.25 81.3301L110.388 81.8037C111.623 86.5517 108.806 91.4304 104.076 92.7344L103.598 92.8525L99.165 93.8223C96.577 94.3883 94.5381 96.3643 93.8818 98.916L93.8223 99.165L92.8525 103.598C91.7552 108.614 86.7098 111.664 81.8037 110.388L81.3301 110.25L77.0068 108.873C74.4822 108.069 71.728 108.761 69.8838 110.644L69.708 110.829L66.6523 114.183C63.1941 117.978 57.3 118.097 53.6895 114.539L53.3477 114.183L50.292 110.829C48.5077 108.871 45.7764 108.093 43.2383 108.801L42.9932 108.873L38.6699 110.25C33.777 111.808 28.6131 108.963 27.2656 104.076L27.1475 103.598L26.1777 99.165C25.6117 96.577 23.6357 94.5381 21.084 93.8818L20.835 93.8223L16.4023 92.8525C11.2245 91.7199 8.1418 86.3806 9.75 81.3301L11.127 77.0068L11.1992 76.7617C11.8842 74.3053 11.1779 71.6685 9.35645 69.8838L9.1709 69.708L5.81738 66.6523C1.89935 63.0825 1.89935 56.9175 5.81738 53.3477L9.1709 50.292L9.35645 50.1162C11.1779 48.3315 11.8842 45.6947 11.1992 43.2383L11.127 42.9932L9.75 38.6699C8.1418 33.6194 11.2245 28.2801 16.4023 27.1475L20.835 26.1777L21.084 26.1182C23.6357 25.4619 25.6117 23.423 26.1777 20.835L27.1475 16.4023L27.2656 15.9238C28.6131 11.0366 33.777 8.19199 38.6699 9.75L42.9932 11.127L43.2383 11.1992C45.7764 11.907 48.5077 11.1293 50.292 9.1709L53.3477 5.81738L53.6895 5.46094Z" fill="#43B929" stroke="#258B3E" stroke-width="2"/>
<g filter="url(#filter0_i_183_956)">
<circle cx="60" cy="60" r="36" fill="white"/>
</g>
<g filter="url(#filter1_ddi_183_956)">
<path d="M73.762 56.4592C73.2319 55.9052 72.6835 55.3342 72.4767 54.8322C72.2855 54.3724 72.2742 53.6102 72.263 52.8719C72.2419 51.4994 72.2194 49.9441 71.138 48.8627C70.0566 47.7813 68.5013 47.7588 67.1288 47.7377C66.3905 47.7264 65.6283 47.7152 65.1685 47.5239C64.6678 47.3172 64.0955 46.7688 63.5414 46.2386C62.5711 45.3063 61.4686 44.2502 60.0005 44.2502C58.5324 44.2502 57.4313 45.3063 56.4595 46.2386C55.9055 46.7688 55.3345 47.3172 54.8325 47.5239C54.3755 47.7152 53.6105 47.7264 52.8722 47.7377C51.4997 47.7588 49.9444 47.7813 48.863 48.8627C47.7816 49.9441 47.7661 51.4994 47.738 52.8719C47.7267 53.6102 47.7155 54.3724 47.5242 54.8322C47.3175 55.3328 46.7691 55.9052 46.2389 56.4592C45.3066 57.4296 44.2505 58.5321 44.2505 60.0002C44.2505 61.4683 45.3066 62.5694 46.2389 63.5411C46.7691 64.0952 47.3175 64.6661 47.5242 65.1681C47.7155 65.628 47.7267 66.3902 47.738 67.1285C47.7591 68.501 47.7816 70.0563 48.863 71.1377C49.9444 72.2191 51.4997 72.2416 52.8722 72.2627C53.6105 72.2739 54.3727 72.2852 54.8325 72.4764C55.3331 72.6831 55.9055 73.2316 56.4595 73.7617C57.4299 74.6941 58.5324 75.7502 60.0005 75.7502C61.4686 75.7502 62.5697 74.6941 63.5414 73.7617C64.0955 73.2316 64.6664 72.6831 65.1685 72.4764C65.6283 72.2852 66.3905 72.2739 67.1288 72.2627C68.5013 72.2416 70.0566 72.2191 71.138 71.1377C72.2194 70.0563 72.2419 68.501 72.263 67.1285C72.2742 66.3902 72.2855 65.628 72.4767 65.1681C72.6835 64.6675 73.2319 64.0952 73.762 63.5411C74.6944 62.5708 75.7505 61.4683 75.7505 60.0002C75.7505 58.5321 74.6944 57.431 73.762 56.4592ZM66.4214 57.4211L58.5464 65.2961C58.4419 65.4007 58.3179 65.4837 58.1813 65.5403C58.0447 65.5969 57.8983 65.6261 57.7505 65.6261C57.6026 65.6261 57.4563 65.5969 57.3197 65.5403C57.1831 65.4837 57.059 65.4007 56.9545 65.2961L53.5795 61.9211C53.3685 61.71 53.2499 61.4237 53.2499 61.1252C53.2499 60.8266 53.3685 60.5403 53.5795 60.3292C53.7906 60.1181 54.077 59.9996 54.3755 59.9996C54.674 59.9996 54.9603 60.1181 55.1714 60.3292L57.7505 62.9097L64.8295 55.8292C64.9341 55.7247 65.0582 55.6418 65.1947 55.5852C65.3313 55.5287 65.4777 55.4996 65.6255 55.4996C65.7733 55.4996 65.9197 55.5287 66.0562 55.5852C66.1928 55.6418 66.3169 55.7247 66.4214 55.8292C66.5259 55.9338 66.6089 56.0579 66.6654 56.1944C66.722 56.331 66.7511 56.4774 66.7511 56.6252C66.7511 56.773 66.722 56.9194 66.6654 57.0559C66.6089 57.1925 66.5259 57.3166 66.4214 57.4211Z" fill="#43B929"/>
</g>
<defs>
<filter id="filter0_i_183_956" x="24" y="23.1667" width="72" height="72.8333" filterUnits="userSpaceOnUse" color-interpolation-filters="sRGB">
<feFlood flood-opacity="0" result="BackgroundImageFix"/>
<feBlend mode="normal" in="SourceGraphic" in2="BackgroundImageFix" result="shape"/>
<feColorMatrix in="SourceAlpha" type="matrix" values="0 0 0 0 0 0 0 0 0 0 0 0 0 0 0 0 0 0 127 0" result="hardAlpha"/>
<feOffset dy="-0.833333"/>
<feGaussianBlur stdDeviation="8.33333"/>
<feComposite in2="hardAlpha" operator="arithmetic" k2="-1" k3="1"/>
<feColorMatrix type="matrix" values="0 0 0 0 0.203922 0 0 0 0 0.596078 0 0 0 0 0.203922 0 0 0 1 0"/>
<feBlend mode="normal" in2="shape" result="effect1_innerShadow_183_956"/>
</filter>
<filter id="filter1_ddi_183_956" x="34" y="38.0002" width="52" height="52" filterUnits="userSpaceOnUse" color-interpolation-filters="sRGB">
<feFlood flood-opacity="0" result="BackgroundImageFix"/>
<feColorMatrix in="SourceAlpha" type="matrix" values="0 0 0 0 0 0 0 0 0 0 0 0 0 0 0 0 0 0 127 0" result="hardAlpha"/>
<feMorphology radius="2" operator="erode" in="SourceAlpha" result="effect1_dropShadow_183_956"/>
<feOffset dy="4"/>
<feGaussianBlur stdDeviation="5"/>
<feComposite in2="hardAlpha" operator="out"/>
<feColorMatrix type="matrix" values="0 0 0 0 0.262745 0 0 0 0 0.72549 0 0 0 0 0.160784 0 0 0 0.05 0"/>
<feBlend mode="normal" in2="BackgroundImageFix" result="effect1_dropShadow_183_956"/>
<feColorMatrix in="SourceAlpha" type="matrix" values="0 0 0 0 0 0 0 0 0 0 0 0 0 0 0 0 0 0 127 0" result="hardAlpha"/>
<feMorphology radius="1" operator="erode" in="SourceAlpha" result="effect2_dropShadow_183_956"/>
<feOffset dy="2"/>
<feGaussianBlur stdDeviation="1"/>
<feComposite in2="hardAlpha" operator="out"/>
<feColorMatrix type="matrix" values="0 0 0 0 0 0 0 0 0 0 0 0 0 0 0 0 0 0 0.1 0"/>
<feBlend mode="normal" in2="effect1_dropShadow_183_956" result="effect2_dropShadow_183_956"/>
<feBlend mode="normal" in="SourceGraphic" in2="effect2_dropShadow_183_956" result="shape"/>
<feColorMatrix in="SourceAlpha" type="matrix" values="0 0 0 0 0 0 0 0 0 0 0 0 0 0 0 0 0 0 127 0" result="hardAlpha"/>
<feOffset dy="-1"/>
<feGaussianBlur stdDeviation="2"/>
<feComposite in2="hardAlpha" operator="arithmetic" k2="-1" k3="1"/>
<feColorMatrix type="matrix" values="0 0 0 0 0 0 0 0 0 0 0 0 0 0 0 0 0 0 0.05 0"/>
<feBlend mode="normal" in2="shape" result="effect3_innerShadow_183_956"/>
</filter>
</defs>
</svg>
